<svg xmlns="http://www.w3.org/2000/svg" xmlns:xlink="http://www.w3.org/1999/xlink" xmlns:fi="http://pattern.flaticon.com/" x="0" y="0" width="1920" height="960" viewBox="0 0 350 175"><rect x="0px" y="0px" width="100%" height="100%" opacity="0" fill="#c7c7c7"/><defs><g transform="matrix(1.2318809032440186 0 0 1.2318809032440186 139.59196957945824 1.2939137993589043)" id="L1_5"><g><path d="M90.685,5.927 64.69,5.927 50.365,31.066 62.005,31.066 46.735,62.091 86.864,26.183      73.827,26.183z" fill="#ffd400"/><path d="M59.724,14.642 50.365,31.066 62.005,31.066 46.735,62.091 77.124,34.898 66.995,34.898      74.247,26.183 73.827,26.183 83.431,14.642z" fill="#ffb000"/><path d="M46.734,63.591c-0.318,0-0.638-0.101-0.906-0.305c-0.572-0.435-0.757-1.213-0.439-1.857     l14.206-28.863h-9.229c-0.534,0-1.028-0.284-1.297-0.746s-0.271-1.032-0.007-1.496L63.386,5.185     c0.268-0.469,0.765-0.758,1.304-0.758h25.995c0.582,0,1.111,0.337,1.358,0.863c0.247,0.527,0.167,1.149-0.205,1.597     L77.027,24.683h9.837c0.622,0,1.18,0.384,1.401,0.965s0.063,1.238-0.401,1.653l-40.13,35.908     C47.451,63.463,47.093,63.591,46.734,63.591z M52.946,29.566h9.059c0.519,0,1,0.268,1.273,0.707     c0.273,0.44,0.301,0.99,0.072,1.455L51.492,55.821l31.446-28.138h-9.111c-0.582,0-1.111-0.337-1.358-0.863     c-0.247-0.527-0.167-1.149,0.205-1.597L87.484,7.427H65.562L52.946,29.566z" fill="#33363a"/></g><g><path d="M113.1,84.413c0,20.676-22.032,37.441-49.209,37.441c-27.178,0-49.209-16.766-49.209-37.441     c0-20.68,22.031-45.459,49.209-45.459C91.068,38.954,113.1,63.734,113.1,84.413z" fill="#fff800"/><path d="M113.1,84.413c0,20.676-22.032,37.441-49.209,37.441c-27.178,0-49.209-16.766-49.209-37.441     c0-20.68,22.031-34.928,49.209-34.928C91.068,49.486,113.1,63.734,113.1,84.413z" fill="#ffd400"/><path d="M74.37,74.615c0,1.393-4.691,1.643-10.479,1.643s-10.479-0.25-10.479-1.643     c0-1.395,4.691-5.037,10.479-5.037S74.37,73.22,74.37,74.615z" fill="#fff800"/><path d="M113.1,84.413c0,20.676-22.032,37.441-49.209,37.441c-27.178,0-49.209-16.766-49.209-37.441     c0-20.682,6.261,18.34,49.209,18.34S113.1,63.732,113.1,84.413z" fill="#ffb000"/><path d="M63.891,123.355c-27.961,0-50.709-17.469-50.709-38.941c0-21.27,22.619-46.959,50.709-46.959     S114.6,63.144,114.6,84.413C114.6,105.886,91.852,123.355,63.891,123.355z M63.891,40.454c-26.428,0-47.709,24.048-47.709,43.959     c0,19.818,21.402,35.941,47.709,35.941S111.6,104.232,111.6,84.413C111.6,64.502,90.318,40.454,63.891,40.454z" fill="#33363a"/></g><g><g><path d="M9.197,47.273c6.385,10.541,15.331,16.738,23.985,17.811       c1.492-10.754-0.872-23.232-7.258-33.773C19.539,20.767,10.593,14.57,1.94,13.501C0.447,24.251,2.812,36.732,9.197,47.273z" fill="#ffd400"/><path d="M1.94,13.501c-1.492,10.75,0.872,23.23,7.258,33.771c6.385,10.541,15.331,16.738,23.985,17.811       L1.94,13.501z" fill="#ffb000"/><path d="M34.587,51.296c-1.041-7.334-3.593-14.514-7.379-20.764c-6.417-10.594-15.56-17.344-25.085-18.52      c-0.816-0.101-1.557,0.47-1.669,1.282c-1.611,11.602,1.108,24.27,7.46,34.755c4.339,7.166,9.961,12.622,16.259,15.778      c0.216,0.108,0.444,0.159,0.671,0.159c0.55,0,1.079-0.303,1.342-0.828c0.371-0.74,0.072-1.642-0.669-2.013      c-5.791-2.903-10.99-7.969-15.036-14.651c-1.861-3.071-3.385-6.34-4.567-9.713c6.1-1,13.157,2.117,12.314-12.987      c2.338,2.362,4.503,5.137,6.414,8.292c3.579,5.906,5.99,12.694,6.975,19.631c0.117,0.82,0.879,1.385,1.696,1.274      C34.133,52.876,34.703,52.117,34.587,51.296z" fill="#33363a"/></g><g><path d="M118.584,47.273c-6.385,10.541-15.331,16.738-23.985,17.811       c-1.492-10.754,0.871-23.232,7.258-33.773c6.386-10.543,15.332-16.74,23.986-17.808       C127.334,24.251,124.971,36.732,118.584,47.273z" fill="#ffd400"/><path d="M125.843,13.501c1.491,10.75-0.872,23.23-7.259,33.771       c-6.385,10.541-15.331,16.738-23.985,17.811L125.843,13.501z" fill="#ffb000"/><path d="M127.328,13.295c-0.112-0.813-0.857-1.382-1.669-1.282c-9.525,1.176-18.669,7.926-25.086,18.52      c-3.787,6.253-6.339,13.434-7.378,20.764c-0.116,0.82,0.454,1.58,1.274,1.696c0.832,0.114,1.58-0.455,1.696-1.274      c0.982-6.934,3.395-13.722,6.974-19.631c1.911-3.155,4.076-5.93,6.414-8.292c-0.844,15.104,6.214,11.987,12.315,12.987      c-1.182,3.373-2.706,6.642-4.567,9.713c-4.048,6.684-9.247,11.75-15.036,14.651c-0.741,0.371-1.04,1.272-0.669,2.013      c0.263,0.525,0.792,0.828,1.342,0.828c0.226,0,0.455-0.051,0.671-0.159c6.296-3.155,11.918-8.611,16.259-15.778      C126.219,37.567,128.939,24.899,127.328,13.295z" fill="#33363a"/></g></g><g><circle cx="32" cy="87" r="7" fill="#ff1a1a"/><path d="M39.902,87.775c0,3.871-3.14,7.012-7.013,7.012c-3.874,0-7.014-3.141-7.014-7.012" fill="#d61d1d"/><circle cx="94" cy="87" r="7" fill="#ff1a1a"/><path d="M101.905,87.775c0,3.871-3.141,7.012-7.014,7.012c-3.873,0-7.014-3.141-7.014-7.012" fill="#d61d1d"/></g><path d="M73.528,80.281c-0.828,0-1.5,0.672-1.5,1.5c0,1.427-1.162,2.588-2.591,2.588h-1.456   c-1.428,0-2.59-1.161-2.59-2.588v-1.455c0-0.073-0.011-0.143-0.021-0.213l3.11-1.556c0.622-0.312,0.949-1.01,0.789-1.687   s-0.765-1.155-1.46-1.155h-7.837c-0.695,0-1.3,0.479-1.46,1.155s0.167,1.375,0.789,1.687l3.109,1.556   c-0.01,0.07-0.021,0.14-0.021,0.213v1.455c0,1.427-1.161,2.588-2.589,2.588h-1.457c-1.429,0-2.591-1.161-2.591-2.588   c0-0.828-0.672-1.5-1.5-1.5s-1.5,0.672-1.5,1.5c0,3.081,2.508,5.588,5.591,5.588h1.457c1.616,0,3.069-0.693,4.09-1.792   c1.021,1.099,2.475,1.792,4.091,1.792h1.456c3.083,0,5.591-2.507,5.591-5.588C75.028,80.953,74.357,80.281,73.528,80.281z" fill="#33363a"/><path d="M47.729,70.144c0,4.449-3.605,8.051-8.053,8.051c-4.446,0-8.051-3.602-8.051-8.051    c0-4.447,3.604-8.053,8.051-8.053C44.123,62.091,47.729,65.697,47.729,70.144z" fill="#6d5c4d"/><circle cx="35" cy="67" r="3" fill="#ffffff"/><path d="M39.676,60.591c-3.245,0-6.113,1.63-7.84,4.111c-0.105,0.143-0.197,0.293-0.286,0.447   c-0.897,1.455-1.425,3.163-1.425,4.995c0,5.267,4.284,9.551,9.551,9.551c5.268,0,9.553-4.284,9.553-9.551   C49.229,64.876,44.943,60.591,39.676,60.591z M39.676,76.695c-2.721,0-5.058-1.668-6.047-4.035c0.681-0.018,1.511-0.202,2.44-0.394   c0.356-0.03,0.699-0.097,1.029-0.201c0.809-0.145,1.675-0.259,2.577-0.259c2.413,0,4.573,0.814,6.049,0.854   C44.736,75.027,42.398,76.695,39.676,76.695z" fill="#33363a"/><path d="M96.155,70.144c0,4.449-3.604,8.051-8.051,8.051c-4.447,0-8.052-3.602-8.052-8.051    c0-4.447,3.604-8.053,8.052-8.053C92.551,62.091,96.155,65.697,96.155,70.144z" fill="#6d5c4d"/><circle cx="84" cy="67" r="3" fill="#ffffff"/><path d="M88.105,60.591c-3.243,0-6.11,1.629-7.837,4.108c-0.107,0.145-0.201,0.298-0.292,0.455   c-0.896,1.454-1.423,3.16-1.423,4.99c0,5.267,4.285,9.551,9.552,9.551s9.551-4.284,9.551-9.551   C97.655,64.876,93.371,60.591,88.105,60.591z M88.105,76.695c-2.721,0-5.059-1.668-6.048-4.035   c0.689-0.019,1.527-0.201,2.471-0.397c0.335-0.03,0.658-0.093,0.97-0.189c0.819-0.148,1.693-0.268,2.607-0.268   c2.413,0,4.571,0.814,6.047,0.854C93.163,75.027,90.826,76.695,88.105,76.695z" fill="#33363a"/></g><g transform="matrix(0.5948676141054416 0.21325443742917163 -0.21325443742917163 0.5948676141054416 236.87905677001066 81.00899765393505)" id="L1_6"><circle cx="63" cy="63" r="61" fill="#ff1a1a"/><ellipse cx="63px" cy="63px" rx="61px" ry="47px" fill="#d60909"/><path d="M1.5,63.166c0,34.061,27.609,61.668,61.667,61.668s61.667-27.607,61.667-61.668H1.5z" fill="#ffffff"/><path d="M63.167,110.398c34.058,0,61.667-21.148,61.667-47.232H1.5    C1.5,89.25,29.109,110.398,63.167,110.398z" fill="#d8e5ea"/><path d="M63.167,0C28.336,0,0,28.336,0,63.166c0,34.831,28.336,63.168,63.167,63.168   s63.167-28.337,63.167-63.168C126.334,28.336,97.998,0,63.167,0z M63.167,3c32.673,0,59.328,26.183,60.129,58.666H3.038   C3.839,29.183,30.494,3,63.167,3z M63.167,123.334c-32.673,0-59.328-26.184-60.129-58.668h120.258   C122.495,97.15,95.84,123.334,63.167,123.334z" fill="#33363a"/><circle cx="63" cy="68" r="16" fill="#a7bbc1"/><circle cx="63" cy="63" r="16" fill="#ffffff"/><path d="M51.313,75.021c-6.547-6.547-6.546-17.16,0-23.709c6.547-6.546,17.161-6.546,23.707,0" fill="#d8e5ea"/><path d="M63.167,81.432c-4.878,0-9.465-1.9-12.915-5.35c-7.12-7.12-7.12-18.707,0-25.83    c7.122-7.12,18.708-7.12,25.829,0l0,0c3.45,3.451,5.351,8.038,5.351,12.916c0,4.878-1.9,9.465-5.351,12.915    C72.632,79.532,68.046,81.432,63.167,81.432z M63.167,47.91c-3.909,0-7.817,1.487-10.793,4.463c-5.95,5.953-5.95,15.637,0,21.588    c2.883,2.883,6.716,4.471,10.793,4.471c4.077,0,7.91-1.588,10.792-4.471c2.883-2.883,4.472-6.716,4.472-10.793    c0-4.077-1.588-7.91-4.472-10.794C70.985,49.398,67.076,47.91,63.167,47.91z" fill="#33363a"/><path d="M68.871,68.87c-3.149,3.146-8.257,3.146-11.404,0c-3.149-3.15-3.148-8.255,0-11.403    c3.148-3.15,8.255-3.148,11.403,0C72.019,60.615,72.019,65.72,68.871,68.87z" fill="#ffffff"/><path d="M57.467,57.467c3.148-3.15,8.255-3.148,11.403,0c3.148,3.148,3.148,8.253,0.001,11.403" fill="#d8e5ea"/><path d="M63.168,72.725c-2.45,0-4.898-0.931-6.762-2.794c-3.729-3.73-3.729-9.797,0-13.525    c1.805-1.807,4.207-2.802,6.761-2.802c0,0,0,0,0,0c2.555,0,4.957,0.996,6.763,2.802c3.728,3.727,3.728,9.794,0.001,13.524    c0,0,0,0.001-0.001,0.001C68.066,71.794,65.617,72.725,63.168,72.725z M63.167,56.604c-1.753,0-3.401,0.683-4.64,1.923    c-2.559,2.559-2.559,6.723,0,9.282c2.558,2.557,6.723,2.557,9.283,0c2.558-2.56,2.557-6.724-0.001-9.282    C66.57,57.288,64.921,56.605,63.167,56.604L63.167,56.604z" fill="#33363a"/></g><g transform="matrix(0.6198248595082885 -0.18693130832972035 0.18693130832972035 0.6198248595082885 101.58992524558433 102.42861495164166)" id="L1_7"><g><g><path d="M39.136,13.377c-2.965,5.133-3.018,11.144-0.68,16.135c5.49-0.471,10.67-3.521,13.635-8.656      c2.963-5.133,3.018-11.145,0.68-16.135C47.281,5.189,42.099,8.244,39.136,13.377z" fill="#ffd400"/><path d="M38.457,29.512c5.49-0.471,10.67-3.521,13.635-8.656c2.963-5.133,3.018-11.145,0.68-16.135" fill="#ffc200"/><path d="M39.343,17.873c-2.004,3.469-2.039,7.529-0.459,10.9c3.707-0.318,7.205-2.379,9.209-5.848      c2-3.467,2.037-7.527,0.457-10.897C44.843,12.346,41.343,14.406,39.343,17.873z" fill="#ff5b00"/><path d="M38.884,28.773c3.707-0.318,7.205-2.379,9.209-5.848c2-3.467,2.037-7.527,0.457-10.897" fill="#ff7900"/><path d="M38.456,31.012c-0.578,0-1.109-0.333-1.358-0.863c-2.631-5.616-2.354-12.166,0.739-17.521h0      c3.094-5.359,8.629-8.873,14.807-9.4c0.621-0.057,1.219,0.289,1.486,0.857c2.63,5.614,2.354,12.164-0.739,17.521      c-3.093,5.356-8.628,8.871-14.806,9.4C38.542,31.01,38.499,31.012,38.456,31.012z M51.834,6.342      c-4.767,0.731-8.975,3.585-11.399,7.785c0,0,0,0,0,0c-2.424,4.197-2.792,9.268-1.042,13.763c4.768-0.732,8.976-3.586,11.4-7.784      C53.216,15.906,53.584,10.836,51.834,6.342z" fill="#33363a"/></g><g><path d="M47.541,16.115c-5.135,2.963-8.186,8.143-8.656,13.633c4.99,2.338,11.002,2.285,16.137-0.678      c5.133-2.965,8.186-8.144,8.656-13.635C58.687,13.098,52.673,13.15,47.541,16.115z" fill="#ffd400"/><path d="M38.884,29.748c4.99,2.338,11.002,2.285,16.137-0.678c5.133-2.965,8.186-8.144,8.656-13.635" fill="#ffc200"/><path d="M45.47,20.113c-3.469,2.002-5.529,5.5-5.846,9.209c3.369,1.578,7.43,1.543,10.898-0.459      c3.465-2.002,5.527-5.5,5.844-9.209C53,18.076,48.937,18.109,45.47,20.113z" fill="#ff5b00"/><path d="M39.625,29.322c3.369,1.578,7.43,1.543,10.898-0.459c3.465-2.002,5.527-5.5,5.844-9.209" fill="#ff7900"/><path d="M46.307,32.9c-2.747,0-5.5-0.595-8.059-1.794c-0.569-0.267-0.912-0.86-0.858-1.486      c0.53-6.179,4.044-11.713,9.4-14.804l0,0c5.357-3.094,11.907-3.371,17.523-0.739c0.569,0.267,0.912,0.86,0.858,1.486      c-0.53,6.177-4.044,11.712-9.4,14.806C52.855,32.052,49.586,32.9,46.307,32.9z M40.506,28.812      c4.494,1.749,9.565,1.382,13.766-1.04c4.198-2.425,7.051-6.633,7.784-11.399c-4.497-1.751-9.567-1.383-13.765,1.042      c0,0,0,0-0.001,0C44.092,19.837,41.239,24.044,40.506,28.812z" fill="#33363a"/></g></g><g><path d="M63.242,80.84C45.271,79.436,31.843,63.728,33.25,45.758c0.463-5.939,2.516-11.365,5.671-15.941     C26.62,33.713,17.287,44.725,16.218,58.381C14.814,76.35,28.242,92.057,46.212,93.463c12.029,0.939,23.019-4.787,29.41-14.053     C71.736,80.641,67.558,81.178,63.242,80.84z" fill="#e86207"/><path d="M30.915,33.637c-3.027,4.502-4.982,9.814-5.436,15.613c-1.405,17.969,12.023,33.676,29.993,35.08     c7.164,0.561,13.95-1.258,19.625-4.768c-3.738,1.115-7.732,1.6-11.856,1.277C45.271,79.436,31.843,63.728,33.25,45.758     c0.463-5.939,2.516-11.365,5.671-15.941C36.068,30.723,33.382,32.021,30.915,33.637z" fill="#f77819"/><path d="M48.718,95.061c-0.872,0-1.746-0.034-2.623-0.103C27.33,93.49,13.256,77.029,14.723,58.264     c1.09-13.926,10.41-25.653,23.745-29.877c0.612-0.196,1.278,0.022,1.659,0.537c0.381,0.516,0.393,1.217,0.029,1.744     c-3.116,4.52-4.987,9.778-5.41,15.206c-0.649,8.293,1.97,16.341,7.375,22.662c5.404,6.322,12.947,10.16,21.239,10.809h0     c3.988,0.313,7.964-0.146,11.811-1.364c0.61-0.196,1.277,0.022,1.659,0.538c0.381,0.515,0.393,1.216,0.029,1.743     C70.456,89.543,59.852,95.06,48.718,95.061z M35.389,32.811C25.38,37.547,18.595,47.233,17.714,58.498     c-1.338,17.115,11.499,32.13,28.616,33.47c9.578,0.75,18.958-3.043,25.383-10.052c-2.831,0.504-5.705,0.646-8.588,0.419     c-9.09-0.71-17.36-4.918-23.286-11.849c-5.925-6.931-8.796-15.755-8.085-24.846C32.103,41.17,33.346,36.806,35.389,32.811z" fill="#33363a"/></g><g><path d="M107.903,88.643c0,20.676-22.032,37.441-49.209,37.441c-27.178,0-49.209-16.766-49.209-37.441     c0-20.68,22.031-45.459,49.209-45.459C85.871,43.184,107.903,67.963,107.903,88.643z" fill="#ffad40"/><path d="M107.903,88.643c0,20.676-22.032,37.441-49.209,37.441c-27.178,0-49.209-16.766-49.209-37.441     c0-20.68,22.031-34.928,49.209-34.928C85.871,53.715,107.903,67.963,107.903,88.643z" fill="#f77819"/><path d="M69.13,82.787c0,1.395-4.691,1.645-10.478,1.645c-5.787,0-10.479-0.25-10.479-1.645     c0-1.393,4.691-5.035,10.479-5.035C64.439,77.752,69.13,81.394,69.13,82.787z" fill="#ffad40"/><path d="M107.903,88.643c0,20.676-22.032,37.441-49.209,37.441c-27.178,0-49.209-16.766-49.209-37.441     c0-20.682,6.261,18.34,49.209,18.34C101.642,106.982,107.903,67.961,107.903,88.643z" fill="#e86207"/><path d="M58.694,127.584c-27.961,0-50.709-17.469-50.709-38.941c0-21.27,22.62-46.959,50.709-46.959     s50.709,25.689,50.709,46.959C109.403,110.115,86.655,127.584,58.694,127.584z M58.694,44.684     c-26.428,0-47.709,24.048-47.709,43.959c0,19.818,21.402,35.941,47.709,35.941s47.709-16.123,47.709-35.941     C106.403,68.731,85.122,44.684,58.694,44.684z" fill="#33363a"/></g><path d="M42.532,74.549c0,4.449-3.605,8.051-8.052,8.051c-4.447,0-8.051-3.602-8.051-8.051    c0-4.447,3.604-8.051,8.051-8.051C38.926,66.498,42.532,70.102,42.532,74.549z" fill="#1362a8"/><circle cx="30" cy="71" r="3" fill="#ffffff"/><path d="M34.48,64.998c-3.233,0-6.092,1.619-7.82,4.085c-0.119,0.158-0.222,0.325-0.321,0.498   c-0.888,1.45-1.41,3.147-1.41,4.968c0,5.267,4.285,9.551,9.551,9.551c5.267,0,9.552-4.284,9.552-9.551S39.747,64.998,34.48,64.998z    M34.48,81.1c-2.721,0-5.058-1.668-6.046-4.034c0.688-0.018,1.525-0.2,2.468-0.396c0.335-0.03,0.658-0.093,0.97-0.189   c0.819-0.148,1.694-0.268,2.608-0.268c2.412,0,4.571,0.813,6.047,0.853C39.539,79.432,37.201,81.1,34.48,81.1z" fill="#33363a"/><path d="M90.959,74.549c0,4.449-3.605,8.051-8.051,8.051c-4.447,0-8.052-3.602-8.052-8.051    c0-4.447,3.604-8.051,8.052-8.051C87.354,66.498,90.959,70.102,90.959,74.549z" fill="#1362a8"/><circle cx="78" cy="71" r="3" fill="#ffffff"/><path d="M82.908,64.998c-3.24,0-6.104,1.625-7.832,4.099c-0.111,0.149-0.207,0.305-0.3,0.466   c-0.894,1.453-1.42,3.157-1.42,4.985c0,5.267,4.285,9.551,9.552,9.551c5.266,0,9.551-4.284,9.551-9.551   S88.174,64.998,82.908,64.998z M82.908,81.1c-2.721,0-5.059-1.668-6.047-4.034c0.688-0.018,1.525-0.2,2.468-0.396   c0.336-0.03,0.66-0.093,0.973-0.19c0.819-0.148,1.693-0.267,2.607-0.267c2.412,0,4.571,0.813,6.046,0.853   C87.966,79.432,85.628,81.1,82.908,81.1z" fill="#33363a"/><path d="M78.904,70.152c-0.982,0-1.781,0.798-1.781,1.779c0,0.982,0.799,1.781,1.781,1.781   c0.981,0,1.779-0.799,1.779-1.781C80.683,70.95,79.885,70.152,78.904,70.152z" fill="#ffffff"/><g><path d="M56.227,90.84c-0.398,0-0.796-0.157-1.091-0.47l-1.5-1.588c-0.569-0.603-0.542-1.552,0.06-2.121     c0.603-0.569,1.552-0.542,2.121,0.061l1.5,1.588c0.569,0.603,0.542,1.552-0.06,2.121C56.966,90.704,56.596,90.84,56.227,90.84z" fill="#33363a"/><path d="M61.161,90.84c-0.37,0-0.74-0.136-1.03-0.409c-0.602-0.569-0.629-1.519-0.06-2.121l1.5-1.588     c0.569-0.603,1.518-0.629,2.121-0.061c0.602,0.569,0.629,1.519,0.06,2.121l-1.5,1.588C61.957,90.683,61.56,90.84,61.161,90.84z" fill="#33363a"/></g><path d="M36.458,94.291 31.404,97.266 31.046,91.414" fill="#ffffff"/><path d="M80.93,94.291 85.984,97.266 86.341,91.414" fill="#ffffff"/><path d="M89.586,85.492c-0.746-0.362-1.643-0.057-2.007,0.688c-0.033,0.069-3.453,6.784-14.958,6.784   c-0.157,0-0.315-0.001-0.475-0.004c-8.041-0.125-11.745,1.522-13.453,3.101c-1.707-1.578-5.411-3.224-13.453-3.101   c-11.744,0.208-15.283-6.483-15.437-6.788c-0.366-0.738-1.262-1.042-2.003-0.681c-0.744,0.364-1.052,1.263-0.688,2.007   c0.07,0.143,0.826,1.599,2.59,3.262c-0.11,0.225-0.171,0.477-0.154,0.745l0.357,5.852c0.032,0.521,0.332,0.987,0.792,1.232   c0.221,0.117,0.463,0.176,0.705,0.176c0.263,0,0.526-0.069,0.761-0.207l5.054-2.975c0.216-0.127,0.382-0.303,0.506-0.501   c2.129,0.575,4.617,0.932,7.565,0.878c9.085-0.146,11.658,2.161,11.883,3.063c-0.016-0.065-0.014-0.103-0.014-0.103l1.536-0.14   l1.536,0.14c0,0,0.002,0.037-0.014,0.103c0.226-0.901,2.817-3.234,11.884-3.063c2.949,0.052,5.437-0.304,7.565-0.878   c0.124,0.198,0.29,0.374,0.505,0.501l5.054,2.975c0.234,0.138,0.498,0.207,0.761,0.207c0.242,0,0.484-0.059,0.705-0.176   c0.46-0.245,0.761-0.712,0.792-1.232l0.357-5.852c0.016-0.267-0.044-0.518-0.153-0.742c1.764-1.664,2.519-3.121,2.589-3.265   C90.639,86.755,90.331,85.856,89.586,85.492z M32.752,94.731l-0.108-1.764c0.503,0.301,1.05,0.589,1.635,0.865L32.752,94.731z    M84.636,94.731l-1.525-0.898c0.584-0.275,1.131-0.563,1.633-0.863L84.636,94.731z" fill="#33363a"/><g><path d="M46.298,15.814c0,5.928-2.96,11.16-7.48,14.312c-4.52-3.152-7.479-8.385-7.479-14.312     c0-5.928,2.96-11.162,7.479-14.314C43.338,4.652,46.298,9.887,46.298,15.814z" fill="#ffd400"/><path d="M38.818,30.127c-4.52-3.152-7.479-8.385-7.479-14.312c0-5.928,2.96-11.162,7.479-14.314" fill="#ffc200"/><path d="M43.871,19.605c0,4.006-2,7.539-5.053,9.668c-3.053-2.129-5.051-5.662-5.051-9.668     c0-4.002,1.998-7.537,5.051-9.664C41.871,12.068,43.871,15.603,43.871,19.605z" fill="#ff5b00"/><path d="M38.818,29.273c-3.053-2.129-5.051-5.662-5.051-9.668c0-4.002,1.998-7.537,5.051-9.664" fill="#ff7900"/><path d="M38.818,31.627c-0.3,0-0.6-0.09-0.858-0.27c-5.085-3.547-8.122-9.357-8.122-15.543     c0-6.187,3.036-11.998,8.122-15.545c0.515-0.359,1.2-0.359,1.716,0c5.086,3.547,8.123,9.358,8.123,15.545     c0,6.186-3.037,11.996-8.123,15.543C39.418,31.537,39.118,31.627,38.818,31.627z M38.818,3.372     c-3.763,3.019-5.979,7.594-5.979,12.442c0,4.848,2.217,9.422,5.979,12.44c3.763-3.018,5.98-7.593,5.98-12.44     C44.798,10.966,42.581,6.391,38.818,3.372z" fill="#33363a"/></g><g><path d="M98.439,25.049c0,5.928-2.96,11.16-7.48,14.313c-4.52-3.152-7.48-8.385-7.48-14.313     c0-5.928,2.96-11.162,7.48-14.314C95.479,13.887,98.439,19.121,98.439,25.049z" fill="#ffd400"/><path d="M90.959,39.361c-4.52-3.152-7.48-8.385-7.48-14.313c0-5.928,2.96-11.162,7.48-14.314" fill="#ffc200"/><path d="M96.011,28.84c0,4.006-2,7.539-5.053,9.668c-3.053-2.129-5.051-5.662-5.051-9.668     c0-4.002,1.998-7.537,5.051-9.664C94.011,21.303,96.011,24.838,96.011,28.84z" fill="#ff5b00"/><path d="M90.959,38.508c-3.053-2.129-5.051-5.662-5.051-9.668c0-4.002,1.998-7.537,5.051-9.664" fill="#ff7900"/><path d="M90.958,40.861c-0.3,0-0.6-0.09-0.858-0.27c-5.085-3.547-8.122-9.357-8.122-15.543     c0-6.187,3.036-11.998,8.122-15.545c0.515-0.359,1.2-0.359,1.716,0c5.086,3.547,8.123,9.358,8.123,15.545     c0,6.186-3.037,11.996-8.123,15.543C91.559,40.771,91.259,40.861,90.958,40.861z M90.958,12.606     c-3.763,3.019-5.979,7.594-5.979,12.442c0,4.848,2.217,9.422,5.979,12.44c3.763-3.018,5.98-7.593,5.98-12.44     C96.939,20.2,94.722,15.625,90.958,12.606z" fill="#33363a"/></g><g><path d="M118.099,48.744c0,5.928-2.961,11.16-7.481,14.313c-4.52-3.152-7.479-8.385-7.479-14.313     c0-5.928,2.96-11.162,7.479-14.314C115.138,37.582,118.099,42.816,118.099,48.744z" fill="#ffd400"/><path d="M110.618,63.057c-4.52-3.152-7.479-8.385-7.479-14.313c0-5.928,2.96-11.162,7.479-14.314" fill="#ffc200"/><path d="M115.669,52.535c0,4.006-1.999,7.539-5.052,9.668c-3.052-2.129-5.052-5.662-5.052-9.668     c0-4.002,2-7.537,5.052-9.664C113.67,44.998,115.669,48.533,115.669,52.535z" fill="#ff5b00"/><path d="M110.618,62.203c-3.052-2.129-5.052-5.662-5.052-9.668c0-4.002,2-7.537,5.052-9.664" fill="#ff7900"/><path d="M110.618,64.557c-0.3,0-0.6-0.09-0.858-0.27c-5.085-3.547-8.122-9.357-8.122-15.543     c0-6.187,3.036-11.998,8.122-15.545c0.515-0.359,1.2-0.359,1.716,0c5.087,3.547,8.124,9.358,8.124,15.545     c0,6.186-3.037,11.996-8.124,15.543C111.218,64.467,110.918,64.557,110.618,64.557z M110.618,36.302     c-3.763,3.019-5.979,7.594-5.979,12.442c0,4.848,2.217,9.422,5.979,12.44c3.764-3.019,5.981-7.593,5.981-12.44     C116.599,43.896,114.381,39.32,110.618,36.302z" fill="#33363a"/></g></g><g transform="matrix(0.5906757557291955 0.17228042435674318 -0.17228042435674318 0.5906757557291955 191.19880984679838 85.29900263253182)" id="L1_8"><g><path d="M97.188,23.982c0.002,0.002,0.005,0.002,0.008,0.004C94.325,11.121,82.848,1.5,69.118,1.5     c-15.893,0-28.777,12.885-28.777,28.777c0,11.66,6.939,21.693,16.91,26.215c-0.452-2.025-0.699-4.131-0.699-6.293     c0-6.625,2.244-12.721,6.006-17.582c1.484,8.385,8.791,14.758,17.604,14.758c9.883,0,17.896-8.012,17.896-17.895     C98.058,27.561,97.747,25.715,97.188,23.982z" fill="#93f9ea"/><path d="M56.552,50.199c0-6.625,2.244-12.721,6.006-17.582c1.484,8.385,8.791,14.758,17.604,14.758     c8.581,0,15.745-6.043,17.484-14.107c-0.128-0.594-0.274-1.182-0.458-1.754c0.002,0.002,0.005,0.002,0.008,0.004     C94.325,18.654,82.848,9.033,69.118,9.033c-14.607,0-26.664,10.887-28.522,24.986c1.275,9.789,7.467,18.02,16.021,22.156     c0.039-0.73,0.106-1.453,0.199-2.17C56.65,52.76,56.552,51.492,56.552,50.199z" fill="#70d3e0"/><path d="M98.661,23.664c0-0.002-0.001-0.003-0.001-0.005C95.601,9.95,83.177,0,69.118,0    C52.423,0,38.841,13.582,38.841,30.277c0,11.854,6.983,22.68,17.791,27.581c0.198,0.09,0.409,0.134,0.619,0.134    c0.338,0,0.674-0.114,0.946-0.336c0.441-0.358,0.642-0.936,0.518-1.491c-0.44-1.971-0.663-3.979-0.663-5.966    c0-5.025,1.341-9.828,3.902-14.058c2.74,7.544,9.938,12.733,18.208,12.733c10.694,0,19.396-8.7,19.396-19.395    C99.558,27.514,99.256,25.558,98.661,23.664z M80.162,45.875c-6.959,0-13.018-4.348-15.358-10.678    c0.036-0.246,0.019-0.504-0.076-0.753c-2.496-6.524,0.781-13.863,7.306-16.359c2.452-0.939,5.125-0.866,7.524,0.205    c2.399,1.072,4.237,3.014,5.176,5.47c0.723,1.886,0.667,3.941-0.157,5.786c-0.824,1.847-2.318,3.261-4.207,3.982    c-2.963,1.138-6.297-0.353-7.432-3.315c-0.849-2.22,0.264-4.715,2.48-5.562c0.773-0.296,1.161-1.163,0.865-1.938    s-1.165-1.16-1.938-0.865c-3.761,1.438-5.649,5.671-4.21,9.436c1.333,3.482,4.662,5.625,8.187,5.625    c1.038,0,2.093-0.186,3.119-0.578c2.637-1.009,4.723-2.983,5.874-5.562s1.229-5.448,0.22-8.082    c-1.225-3.203-3.623-5.737-6.754-7.136c-3.13-1.399-6.617-1.493-9.82-0.27c-6.956,2.662-10.914,9.774-9.901,16.855    c-3.922,5.255-6.008,11.483-6.008,18.062c0,1.188,0.071,2.382,0.214,3.572c-8.24-4.868-13.425-13.8-13.425-23.494    C41.841,15.236,54.077,3,69.118,3C81.734,3,92.891,11.896,95.7,24.172c0.012,0.091,0.032,0.182,0.061,0.271    c0.529,1.64,0.797,3.335,0.797,5.038C96.558,38.521,89.202,45.875,80.162,45.875z" fill="#33363a"/></g><g><g><g><path d="M113.104,88.848c0,20.676-22.032,37.441-49.209,37.441c-27.178,0-49.209-16.766-49.209-37.441       c0-20.68,22.031-45.459,49.209-45.459C91.071,43.389,113.104,68.168,113.104,88.848z" fill="#93f9ea"/><path d="M113.104,88.848c0,20.676-22.032,37.441-49.209,37.441c-27.178,0-49.209-16.766-49.209-37.441       c0-20.68,22.031-34.928,49.209-34.928C91.071,53.92,113.104,68.168,113.104,88.848z" fill="#7fe5d8"/><path d="M74.415,102.902c0,1.393-4.691,1.643-10.479,1.643s-10.479-0.25-10.479-1.643       c0-1.395,4.691-5.037,10.479-5.037S74.415,101.508,74.415,102.902z" fill="#93f9ea"/><path d="M113.104,88.848c0,20.676-22.032,37.441-49.209,37.441c-27.178,0-49.209-16.766-49.209-37.441       c0-20.682,6.261,18.34,49.209,18.34S113.104,68.166,113.104,88.848z" fill="#70d3e0"/><path d="M63.895,127.789c-27.961,0-50.709-17.469-50.709-38.941c0-21.27,22.619-46.959,50.709-46.959       s50.709,25.689,50.709,46.959C114.604,110.32,91.855,127.789,63.895,127.789z M63.895,44.889       c-26.428,0-47.709,24.048-47.709,43.959c0,19.818,21.402,35.941,47.709,35.941s47.709-16.123,47.709-35.941       C111.604,68.937,90.322,44.889,63.895,44.889z" fill="#33363a"/></g><path d="M47.732,94.754c0,4.449-3.605,8.051-8.052,8.051c-4.447,0-8.051-3.602-8.051-8.051      c0-4.447,3.604-8.051,8.051-8.051C44.127,86.703,47.732,90.307,47.732,94.754z" fill="#893015"/><circle cx="35" cy="92" r="3" fill="#ffffff"/><path d="M39.681,85.203c-3.234,0-6.093,1.62-7.822,4.086c-0.118,0.157-0.22,0.323-0.318,0.494     c-0.889,1.45-1.411,3.148-1.411,4.97c0,5.267,4.284,9.551,9.551,9.551s9.552-4.284,9.552-9.551S44.947,85.203,39.681,85.203z      M39.681,101.305c-2.721,0-5.058-1.668-6.046-4.034c0.688-0.018,1.524-0.2,2.468-0.396c0.336-0.03,0.659-0.093,0.972-0.19     c0.819-0.148,1.693-0.267,2.607-0.267c2.412,0,4.571,0.813,6.047,0.853C44.739,99.637,42.401,101.305,39.681,101.305z" fill="#33363a"/><path d="M96.159,94.754c0,4.449-3.604,8.051-8.051,8.051c-4.447,0-8.052-3.602-8.052-8.051      c0-4.447,3.604-8.051,8.052-8.051C92.555,86.703,96.159,90.307,96.159,94.754z" fill="#893015"/><circle cx="84" cy="92" r="3" fill="#ffffff"/><path d="M88.108,85.203c-3.238,0-6.101,1.623-7.829,4.095c-0.113,0.151-0.211,0.31-0.305,0.474     c-0.893,1.452-1.417,3.155-1.417,4.981c0,5.267,4.285,9.551,9.552,9.551s9.551-4.284,9.551-9.551S93.375,85.203,88.108,85.203z      M88.108,101.305c-2.721,0-5.058-1.668-6.047-4.034c0.688-0.018,1.524-0.2,2.467-0.396c0.337-0.03,0.661-0.093,0.974-0.19     c0.818-0.148,1.693-0.267,2.606-0.267c2.412,0,4.571,0.813,6.046,0.853C93.166,99.637,90.829,101.305,88.108,101.305z" fill="#33363a"/></g><path d="M94.787,105.697c-0.741-0.362-1.642-0.057-2.007,0.688c-0.034,0.07-3.554,6.973-15.432,6.78    c-0.297-0.005-0.587-0.007-0.871-0.007c-7.436,0-10.932,1.583-12.579,3.104c-1.707-1.587-5.412-3.242-13.456-3.097    c-0.162,0.003-0.321,0.004-0.479,0.004c-11.367,0-14.806-6.492-14.958-6.792c-0.367-0.739-1.265-1.043-2.003-0.681    c-0.744,0.364-1.053,1.263-0.688,2.007c0.172,0.35,4.297,8.466,17.648,8.466c0.174,0,0.351-0.001,0.528-0.004    c9.072-0.159,11.657,2.161,11.883,3.063c-0.017-0.065-0.015-0.103-0.015-0.103l1.536-0.14l1.536,0.14c0,0,0.002,0.037-0.015,0.103    c0.226-0.901,2.763-3.214,11.885-3.063c13.733,0.228,18.002-8.107,18.175-8.462C95.84,106.96,95.531,106.062,94.787,105.697z" fill="#33363a"/><g><path d="M61.427,111.045c-0.398,0-0.795-0.157-1.091-0.47l-1.5-1.588      c-0.568-0.603-0.541-1.552,0.061-2.121c0.602-0.567,1.551-0.542,2.121,0.061l1.5,1.588c0.568,0.603,0.541,1.552-0.061,2.121      C62.167,110.909,61.797,111.045,61.427,111.045z" fill="#33363a"/><path d="M66.362,111.045c-0.37,0-0.74-0.136-1.03-0.409c-0.602-0.569-0.629-1.519-0.061-2.121l1.5-1.588      c0.571-0.604,1.521-0.627,2.121-0.061c0.602,0.569,0.629,1.519,0.061,2.121l-1.5,1.588      C67.157,110.888,66.76,111.045,66.362,111.045z" fill="#33363a"/></g><g><path d="M49.029,82.959c-0.266,0-0.533-0.07-0.776-0.218l-4.674-2.834      c-0.709-0.429-0.935-1.352-0.505-2.06c0.428-0.71,1.352-0.935,2.06-0.505l4.674,2.834c0.709,0.429,0.935,1.352,0.505,2.06      C50.031,82.702,49.536,82.959,49.029,82.959z" fill="#33363a"/><path d="M78.76,82.959c-0.507,0-1.002-0.257-1.283-0.723c-0.43-0.708-0.204-1.631,0.505-2.06l4.674-2.834      c0.706-0.43,1.631-0.205,2.06,0.505c0.43,0.708,0.204,1.631-0.505,2.06l-4.674,2.834C79.293,82.889,79.025,82.959,78.76,82.959z      " fill="#33363a"/></g></g></g><g transform="matrix(0.3881477415561676 0 0 0.3881477415561676 158.14893913269043 123.12722050113803)" id="L1_9"><g><path d="M112.767,38.491c18.363,18.363,18.365,35.658,0.002,54.022c-18.365,18.367-79.133,18.365-97.496,0     c-18.363-18.363-18.365-35.658,0-54.022C63.82-10.057,64.22-10.057,112.767,38.491z" fill="#43b530"/><path d="M15.273,45.116C7.228,53.159,2.708,60.999,1.712,68.814c0.996,7.814,5.516,15.654,13.561,23.699     c18.363,18.365,79.131,18.367,97.496,0c8.043-8.043,12.563-15.883,13.559-23.697c-0.996-7.814-5.516-15.654-13.56-23.699     C64.22-3.432,63.82-3.432,15.273,45.116z" fill="#107510"/><path d="M15.273,45.116c-5.006,5.004-8.645,9.93-10.92,14.818c2.275,4.891,5.915,9.816,10.92,14.82     c18.363,18.365,79.131,18.367,97.496,0c5.004-5.004,8.643-9.93,10.919-14.818c-2.276-4.891-5.916-9.816-10.921-14.82     C64.22-3.432,63.82-3.432,15.273,45.116z" fill="#1a8e1c"/><path d="M64.022,107.787c-0.001,0,0,0-0.002,0c-21.956,0-41.042-5.446-49.808-14.214     C4.649,84.01,0,74.828,0,65.502c0-9.326,4.648-18.509,14.212-28.071C38.747,12.895,51.062,0.58,64.02,0.58     s25.273,12.314,49.808,36.851c9.563,9.563,14.212,18.745,14.213,28.071s-4.648,18.509-14.211,28.071     C105.063,102.341,85.977,107.787,64.022,107.787z M64.02,3.58c-11.716,0-24.492,12.776-47.687,35.972     C7.361,48.524,3,57.012,3,65.502c0,8.489,4.361,16.978,13.333,25.95c8.225,8.226,26.497,13.335,47.687,13.335     c21.19,0.001,39.463-5.109,47.688-13.335c8.972-8.972,13.333-17.46,13.332-25.95c0-8.489-4.362-16.979-13.334-25.95l0,0     C88.512,16.357,75.736,3.58,64.02,3.58z" fill="#33363a"/></g><g><path d="M86.844,38.491c8.599,18.363,8.599,35.658,0.001,54.022c-8.599,18.367-37.051,18.365-45.648,0     c-8.599-18.363-8.6-35.658-0.001-54.022C63.927-10.057,64.114-10.057,86.844,38.491z" fill="#43b530"/><path d="M43.696,45.116c-3.767,8.043-8.383,15.883-8.849,23.697c0.466,7.814,2.582,15.654,6.35,23.699     c8.598,18.365,37.05,18.367,45.648,0c3.766-8.043,5.883-15.883,6.349-23.697c-0.466-7.814-5.083-15.654-8.85-23.699     C61.614-3.432,66.427-3.432,43.696,45.116z" fill="#1a8e1c"/><path d="M64.021,107.787C64.021,107.787,64.022,107.787,64.021,107.787     c-10.689,0-19.956-5.609-24.183-14.639c-8.833-18.862-8.833-36.433-0.001-55.293C51.82,12.263,57.291,0.58,64.021,0.58     c0,0,0,0,0,0c6.73,0,12.199,11.681,24.182,37.275c8.832,18.861,8.833,36.431,0.001,55.293     C83.977,102.178,74.709,107.787,64.021,107.787z M64.021,3.58c-4.822-0.001-11.087,13.38-21.466,35.547     c-8.425,17.993-8.425,34.755,0.001,52.75c3.728,7.963,11.954,12.91,21.466,12.91c9.512,0,17.737-4.947,21.465-12.91     c8.425-17.994,8.424-34.756-0.001-52.75l0,0C75.107,16.96,68.842,3.58,64.021,3.58z" fill="#33363a"/></g><path d="M113.229,88.519c0,20.676-22.032,37.441-49.209,37.441c-27.178,0-49.209-16.766-49.209-37.441    c0-20.68,22.031-45.459,49.209-45.459C91.197,43.06,113.229,67.839,113.229,88.519z" fill="#80edac"/><path d="M113.229,88.519c0,20.676-22.032,37.441-49.209,37.441c-27.178,0-49.209-16.766-49.209-37.441    c0-20.68,22.031-34.928,49.209-34.928C91.197,53.591,113.229,67.839,113.229,88.519z" fill="#6adb9a"/><path d="M74.457,91.593c0,1.393-4.691,1.643-10.479,1.643S53.5,92.986,53.5,91.593    c0-1.394,4.691-5.037,10.479-5.037S74.457,90.198,74.457,91.593z" fill="#80edac"/><path d="M113.229,88.519c0,20.676-22.032,37.441-49.209,37.441c-27.178,0-49.209-16.766-49.209-37.441    c0-20.682,6.261,18.34,49.209,18.34S113.229,67.837,113.229,88.519z" fill="#47c67b"/><path d="M77.603,103.081c0,3.893-6.082,7.047-13.583,7.047s-13.583-3.154-13.583-7.047" fill="#ba503a"/><path d="M64.02,127.46c-27.961,0-50.709-17.469-50.709-38.941c0-21.27,22.62-46.959,50.709-46.959    s50.709,25.689,50.709,46.959C114.729,109.991,91.981,127.46,64.02,127.46z M64.02,44.56c-26.428,0-47.709,24.048-47.709,43.959    c0,19.818,21.402,35.941,47.709,35.941s47.709-16.123,47.709-35.941C111.729,68.608,90.448,44.56,64.02,44.56z" fill="#33363a"/><path d="M47.858,84.675c0,4.449-3.605,8.051-8.052,8.051c-4.447,0-8.051-3.602-8.051-8.051    c0-4.447,3.604-8.051,8.051-8.051C44.252,76.624,47.858,80.228,47.858,84.675z" fill="#ad2707"/><circle cx="35" cy="82" r="3" fill="#ffffff"/><path d="M39.806,75.124c-3.233,0-6.092,1.619-7.82,4.085c-0.119,0.158-0.222,0.325-0.321,0.498   c-0.888,1.45-1.41,3.147-1.41,4.968c0,5.267,4.285,9.551,9.551,9.551c5.267,0,9.552-4.284,9.552-9.551S45.073,75.124,39.806,75.124   z M39.806,91.226c-2.721,0-5.058-1.668-6.046-4.034c0.688-0.018,1.525-0.2,2.468-0.396c0.336-0.03,0.659-0.093,0.971-0.19   c0.819-0.148,1.694-0.267,2.608-0.267c2.413,0,4.572,0.813,6.047,0.853C44.865,89.558,42.527,91.226,39.806,91.226z" fill="#33363a"/><path d="M96.285,84.675c0,4.449-3.604,8.051-8.051,8.051c-4.447,0-8.052-3.602-8.052-8.051    c0-4.447,3.604-8.051,8.052-8.051C92.68,76.624,96.285,80.228,96.285,84.675z" fill="#ad2707"/><circle cx="84" cy="82" r="3" fill="#ffffff"/><path d="M88.234,75.124c-3.24,0-6.104,1.625-7.832,4.099c-0.111,0.149-0.207,0.305-0.3,0.466   c-0.894,1.453-1.42,3.157-1.42,4.985c0,5.267,4.285,9.551,9.552,9.551c5.266,0,9.551-4.284,9.551-9.551S93.5,75.124,88.234,75.124z    M88.234,91.226c-2.721,0-5.059-1.668-6.047-4.034c0.688-0.018,1.524-0.2,2.467-0.396c0.337-0.03,0.661-0.093,0.974-0.19   c0.818-0.148,1.693-0.267,2.606-0.267c2.412,0,4.571,0.813,6.046,0.853C93.292,89.558,90.955,91.226,88.234,91.226z" fill="#33363a"/><path d="M84.23,80.279c-0.982,0-1.781,0.798-1.781,1.779c0,0.982,0.799,1.781,1.781,1.781   c0.981,0,1.779-0.799,1.779-1.781C86.009,81.076,85.211,80.279,84.23,80.279z" fill="#ffffff"/><g><path d="M61.553,98.216c-0.398,0-0.796-0.157-1.091-0.47l-1.5-1.588c-0.569-0.603-0.542-1.552,0.06-2.121     c0.603-0.568,1.552-0.542,2.121,0.061l1.5,1.588c0.569,0.603,0.542,1.552-0.06,2.121C62.292,98.08,61.922,98.216,61.553,98.216z" fill="#33363a"/><path d="M66.487,98.216c-0.37,0-0.74-0.136-1.03-0.409c-0.602-0.569-0.629-1.519-0.06-2.121l1.5-1.588     c0.569-0.602,1.518-0.628,2.121-0.061c0.602,0.569,0.629,1.519,0.06,2.121l-1.5,1.588C67.283,98.059,66.886,98.216,66.487,98.216     z" fill="#33363a"/></g><g><g><path d="M33.55,57.243c2.6-1.83,5.369-3.064,8.057-3.723c0.418-2.48,0.033-4.844-1.305-6.744      c-2.901-4.123-9.328-4.807-15.596-2.104c-4.662,4.988-6.188,11.27-3.287,15.391c1.338,1.902,3.432,3.063,5.909,3.506      C28.855,61.261,30.952,59.072,33.55,57.243z" fill="#9cffc4"/><path d="M36.718,49.445c-2.596-3.689-8.016-4.617-13.618-2.836c-3.368,4.598-4.216,9.851-1.681,13.455      c1.112,1.582,2.751,2.643,4.693,3.213c1.126-1.205,2.656-0.191,4.107-1.213c0.425-0.299,0.607-2.711,1.041-2.979      c0.718-0.641,1.469-1.264,2.289-1.842c1.499-1.055,3.055-1.889,4.618-2.551C38.236,52.767,37.785,50.956,36.718,49.445z" fill="#80edac"/><path d="M27.331,65.07c-0.088,0-0.177-0.008-0.266-0.023c-2.975-0.532-5.351-1.957-6.872-4.119      c-3.271-4.647-1.897-11.591,3.418-17.278c0.141-0.15,0.312-0.271,0.501-0.353c7.148-3.083,14.146-2.03,17.417,2.617      c1.521,2.16,2.06,4.877,1.557,7.856c-0.137,0.816-0.916,1.36-1.728,1.23c-0.817-0.138-1.368-0.912-1.23-1.729      c0.368-2.184,0.004-4.131-1.052-5.632c-2.354-3.344-7.867-4.032-13.486-1.712c-4.083,4.506-5.297,9.929-2.944,13.272      c1.057,1.502,2.767,2.503,4.947,2.893c0.815,0.146,1.358,0.926,1.212,1.741C28.675,64.56,28.043,65.07,27.331,65.07z" fill="#33363a"/></g><g><path d="M94.49,57.243c-2.601-1.83-5.369-3.064-8.057-3.723c-0.419-2.48-0.034-4.844,1.305-6.744      c2.9-4.123,9.328-4.807,15.596-2.104c4.661,4.988,6.188,11.27,3.287,15.391c-1.339,1.902-3.432,3.063-5.91,3.506      C99.185,61.261,97.087,59.072,94.49,57.243z" fill="#9cffc4"/><path d="M91.322,49.445c2.596-3.689,8.016-4.617,13.617-2.836c3.369,4.598,4.217,9.851,1.682,13.455      c-1.113,1.582-2.752,2.643-4.693,3.213c-1.127-1.205-2.656-0.191-4.107-1.213c-0.426-0.299-0.607-2.711-1.041-2.979      c-0.719-0.641-1.469-1.264-2.289-1.842c-1.5-1.055-3.055-1.889-4.619-2.551C89.804,52.767,90.255,50.956,91.322,49.445z" fill="#80edac"/><path d="M100.708,65.07c-0.712,0-1.345-0.51-1.475-1.236c-0.146-0.815,0.397-1.595,1.212-1.74      c2.179-0.39,3.89-1.39,4.948-2.893c2.353-3.343,1.138-8.767-2.944-13.272c-5.619-2.32-11.133-1.633-13.485,1.712      c-1.058,1.501-1.421,3.447-1.053,5.631C88.05,54.088,87.5,54.862,86.683,55c-0.817,0.13-1.591-0.413-1.729-1.229      c-0.503-2.98,0.035-5.697,1.558-7.858c3.269-4.646,10.269-5.698,17.416-2.616c0.189,0.081,0.36,0.202,0.502,0.353      c5.314,5.688,6.688,12.632,3.417,17.278c-1.522,2.163-3.898,3.587-6.873,4.119C100.885,65.062,100.796,65.07,100.708,65.07z" fill="#33363a"/></g></g><path d="M57.556,69.029c-4.186,0-7.581-3.394-7.581-7.582c0-4.186,5.278-5.697,9.465-5.697    s5.697,1.512,5.697,5.697C65.137,65.634,61.743,69.029,57.556,69.029z" fill="#47c67b"/><circle cx="72" cy="66" r="2" fill="#47c67b"/><circle cx="46" cy="66" r="2" fill="#47c67b"/><path d="M41.784,101.509 36.73,104.484 36.373,98.632" fill="#ffffff"/><path d="M86.256,101.509 91.31,104.484 91.668,98.632" fill="#ffffff"/><path d="M94.913,92.868c-0.745-0.363-1.643-0.057-2.007,0.688c-0.034,0.07-3.558,7.005-15.432,6.78   c-8.043-0.141-11.747,1.509-13.455,3.094c-1.708-1.581-5.411-3.226-13.452-3.094c-11.76,0.223-15.283-6.484-15.437-6.788   c-0.366-0.738-1.262-1.042-2.003-0.681c-0.744,0.364-1.052,1.263-0.688,2.007c0.069,0.142,0.813,1.568,2.542,3.207   c-0.079,0.198-0.12,0.414-0.106,0.642l0.357,5.852c0.032,0.521,0.332,0.987,0.792,1.232c0.221,0.117,0.463,0.176,0.705,0.176   c0.263,0,0.526-0.069,0.761-0.207l5.054-2.975c0.17-0.1,0.311-0.23,0.424-0.377c1.731,0.476,3.717,0.793,5.987,0.875   c0.201,4.687,6.737,8.328,15.064,8.328c8.328,0,14.866-3.642,15.064-8.33c2.269-0.085,4.253-0.403,5.982-0.878   c0.114,0.149,0.257,0.281,0.429,0.382l5.054,2.975c0.234,0.138,0.498,0.207,0.761,0.207c0.242,0,0.484-0.059,0.705-0.176   c0.46-0.245,0.761-0.712,0.792-1.232l0.357-5.852c0.014-0.227-0.027-0.443-0.106-0.642c1.731-1.639,2.473-3.065,2.543-3.207   C95.965,94.131,95.657,93.233,94.913,92.868z M38.078,101.949l-0.099-1.613c0.461,0.276,0.959,0.54,1.489,0.795L38.078,101.949z    M64.02,108.628c-6.89,0-11.746-2.736-12.053-5.291c7.982,0.091,10.318,2.208,10.532,3.063c-0.016-0.065-0.014-0.103-0.014-0.103   l1.536-0.14l1.536,0.14c0,0,0.002,0.037-0.014,0.103c0.214-0.854,2.567-2.992,10.532-3.066   C75.77,105.89,70.913,108.628,64.02,108.628z M89.962,101.949l-1.395-0.821c0.532-0.255,1.032-0.52,1.494-0.796L89.962,101.949z" fill="#33363a"/></g><g transform="matrix(0.8520744999506805 -0.32402832212711485 0.32402832212711485 0.8520744999506805 44.101776032100986 88.23773215142948)" id="L1_10"><g><g><path d="M11.573,15.268c-7.047,9.68-8.523,22.881-2.655,34.246c5.867,11.371,17.481,17.81,29.458,17.678      c7.047-9.684,8.522-22.881,2.654-34.25C35.162,21.574,23.551,15.133,11.573,15.268z" fill="#0d5c9e"/><path d="M38.376,67.191c7.047-9.684,8.522-22.881,2.654-34.25c-5.868-11.367-17.479-17.809-29.457-17.674      " fill="#009be8"/><path d="M38.001,68.693c-12.888,0-24.517-7.058-30.416-18.492c-5.963-11.549-4.9-25.273,2.775-35.816      c0.279-0.383,0.722-0.611,1.196-0.617c0.132-0.001,0.266-0.002,0.397-0.002c12.883,0,24.508,7.056,30.41,18.487      c5.962,11.551,4.899,25.276-2.774,35.821c-0.279,0.383-0.722,0.612-1.196,0.617C38.262,68.692,38.131,68.693,38.001,68.693z       M12.348,16.768c-6.604,9.534-7.421,21.747-2.097,32.058c5.32,10.312,15.751,16.721,27.351,16.866      c6.602-9.536,7.418-21.75,2.096-32.062C34.375,23.319,23.944,16.911,12.348,16.768z" fill="#33363a"/></g><g><path d="M115.97,15.268c7.047,9.68,8.523,22.881,2.655,34.246c-5.867,11.371-17.48,17.81-29.458,17.678      c-7.047-9.684-8.522-22.881-2.654-34.25C92.381,21.574,103.992,15.133,115.97,15.268z" fill="#0d5c9e"/><path d="M89.167,67.191c-7.047-9.684-8.522-22.881-2.654-34.25c5.868-11.367,17.479-17.809,29.457-17.674      " fill="#009be8"/><path d="M89.542,68.693c-0.131,0-0.26-0.001-0.392-0.002c-0.474-0.005-0.917-0.234-1.196-0.617      c-7.673-10.545-8.736-24.271-2.774-35.82c5.901-11.432,17.528-18.488,30.41-18.488c0.132,0,0.264,0.001,0.397,0.002      c0.474,0.006,0.917,0.234,1.196,0.617c7.675,10.543,8.739,24.268,2.775,35.817C114.059,61.635,102.429,68.693,89.542,68.693z       M115.195,16.768c-11.597,0.143-22.027,6.551-27.35,16.862s-4.506,22.525,2.096,32.062c11.6-0.145,22.03-6.555,27.351-16.865      C122.616,38.515,121.799,26.302,115.195,16.768z" fill="#33363a"/></g></g><g><g><path d="M126.043,68.844c0,26.166-27.88,47.381-62.271,47.381S1.5,95.01,1.5,68.844         c0-26.168,27.88-57.525,62.271-57.525S126.043,42.676,126.043,68.844z" fill="#009be8"/><path d="M126.043,68.844c0,26.166-27.88,47.381-62.271,47.381S1.5,95.01,1.5,68.844         c0-26.168,27.88-44.199,62.271-44.199S126.043,42.676,126.043,68.844z" fill="#0d5c9e"/><path d="M126.043,68.844c0,26.166-27.88,47.381-62.271,47.381S1.5,95.01,1.5,68.844         c0-26.17,7.923,23.209,62.271,23.209S126.043,42.674,126.043,68.844z" fill="#063b66"/><path d="M81.88,38.541L63.771,56.65L45.663,38.541c-22.968,3.551-39.547,14.4-39.547,33.814         c0,24.227,25.812,43.869,57.655,43.869s57.655-19.643,57.655-43.869C121.427,52.943,104.848,42.092,81.88,38.541z" fill="#f4d7b8"/><path d="M104.186,45.525c-6.225-3.365-13.828-5.674-22.307-6.984L63.771,56.65L45.663,38.541         c-8.479,1.311-16.082,3.619-22.307,6.984c10.404,7.783,24.669,12.592,40.415,12.592         C79.517,58.117,93.782,53.309,104.186,45.525z" fill="#fce6c8"/><path d="M121.427,72.355c0-2.656-0.321-5.148-0.916-7.488c-7.173,8.18-23.018,27.186-56.739,27.186         S14.205,73.047,7.032,64.867c-0.596,2.34-0.916,4.832-0.916,7.488c0,23.469,24.225,42.637,54.687,43.811         c0.984,0.035,1.973,0.059,2.968,0.059c0.995,0,1.983-0.023,2.968-0.059C97.202,114.992,121.427,95.824,121.427,72.355z" fill="#eac79d"/><path d="M63.771,117.725c-32.618,0-59.155-20.353-59.155-45.369c0-18.692,14.496-31.228,40.818-35.297         c0.473-0.07,0.952,0.084,1.29,0.422l17.048,17.049L80.819,37.48c0.337-0.339,0.819-0.496,1.29-0.422         c26.322,4.069,40.818,16.604,40.818,35.297C122.927,97.372,96.39,117.725,63.771,117.725z M45.143,40.143         C30.776,42.484,7.616,49.77,7.616,72.355c0,23.362,25.191,42.369,56.155,42.369s56.155-19.007,56.155-42.369         c0-22.586-23.16-29.871-37.527-32.213L64.832,57.711c-0.563,0.563-1.559,0.563-2.121,0L45.143,40.143z" fill="#33363a"/><path d="M63.771,117.725C28.608,117.725,0,95.797,0,68.844C0,42.108,28.446,9.818,63.771,9.818         s63.771,32.29,63.771,59.025C127.543,95.797,98.935,117.725,63.771,117.725z M63.771,12.818C30.108,12.818,3,43.468,3,68.844         c0,25.299,27.262,45.881,60.771,45.881s60.771-20.582,60.771-45.881C124.543,43.468,97.435,12.818,63.771,12.818z" fill="#33363a"/></g><path d="M76.187,82.021c0,2.613-5.559,1.146-12.416,1.146s-12.416,1.467-12.416-1.146     s5.559-4.734,12.416-4.734S76.187,79.408,76.187,82.021z" fill="#fce6c8"/></g><g><g><path d="M53.608,73.309c-0.616,0-1.194-0.383-1.413-0.996c-1.032-2.896-3.071-4.771-6.059-5.57      c-2.781-0.745-6.21-0.476-9.658,0.755c-0.783,0.278-1.639-0.129-1.917-0.909c-0.279-0.78,0.128-1.638,0.908-1.917      c4.016-1.433,8.079-1.728,11.442-0.827c3.942,1.055,6.746,3.635,8.11,7.461c0.278,0.78-0.129,1.639-0.91,1.917      C53.945,73.281,53.775,73.309,53.608,73.309z" fill="#33363a"/><path d="M73.934,73.309c-0.167,0-0.337-0.027-0.504-0.087c-0.78-0.278-1.187-1.137-0.909-1.917      c1.364-3.826,4.169-6.406,8.111-7.461c3.362-0.9,7.426-0.605,11.442,0.827c0.78,0.279,1.187,1.137,0.908,1.917      c-0.278,0.781-1.135,1.188-1.917,0.909c-3.448-1.231-6.878-1.501-9.658-0.755c-2.989,0.8-5.028,2.674-6.06,5.57      C75.127,72.926,74.55,73.309,73.934,73.309z" fill="#33363a"/></g><path d="M84.627,81.144c-0.124-0.06-0.254-0.109-0.397-0.134l-3.514-0.602    c-0.391-0.07-0.795,0.023-1.12,0.254s-0.545,0.58-0.612,0.973l-0.581,3.406c-3.229,0.945-8.142,1.754-14.633,1.754    s-11.404-0.81-14.633-1.754l-0.581-3.406c-0.067-0.393-0.287-0.742-0.612-0.973s-0.73-0.323-1.12-0.254l-3.514,0.602    c-0.143,0.024-0.273,0.074-0.397,0.134c-0.721,0.109-1.276,0.726-1.276,1.477c0,4.929,11.473,7.174,22.132,7.174    s22.132-2.245,22.132-7.174C85.903,81.87,85.349,81.253,84.627,81.144z M45.881,83.784c-0.083-0.046-0.144-0.089-0.22-0.133    l0.191-0.033L45.881,83.784z M81.69,83.618l0.191,0.033c-0.075,0.045-0.136,0.088-0.22,0.133L81.69,83.618z" fill="#33363a"/></g></g><g transform="matrix(0.5835478649790511 0.1307952098445151 -0.1307952098445151 0.5835478649790511 266.07515262932606 33.45891306943009)" id="L1_11"><path d="M115.06,91.168c0,16.236-22.949,34.932-51.26,34.932s-51.26-18.695-51.26-34.932    c0-16.238,22.949-29.402,51.26-29.402S115.06,74.93,115.06,91.168z" fill="#ffecd2"/><path d="M115.06,91.168c0,16.236-22.949,29.266-51.26,29.266s-51.26-13.029-51.26-29.266    c0-16.238,22.949-29.402,51.26-29.402S115.06,74.93,115.06,91.168z" fill="#efc99a"/><path d="M63.8,127.6c-29.713,0-52.76-19.584-52.76-36.432c0-17.04,23.668-30.902,52.76-30.902    s52.76,13.862,52.76,30.902C116.56,108.016,93.513,127.6,63.8,127.6z M63.8,63.266c-27.438,0-49.76,12.517-49.76,27.902    c0,15.143,22.196,33.432,49.76,33.432s49.76-18.289,49.76-33.432C113.56,75.782,91.237,63.266,63.8,63.266z" fill="#33363a"/><g><path d="M113.009,79.612c0,20.676-22.031,37.441-49.209,37.441s-49.209-16.766-49.209-37.441     c0-20.68,22.031-45.459,49.209-45.459S113.009,58.932,113.009,79.612z" fill="#e5b076"/><path d="M113.009,79.612c0,20.676-22.031,37.441-49.209,37.441s-49.209-16.766-49.209-37.441     c0-20.68,22.031-34.928,49.209-34.928S113.009,58.932,113.009,79.612z" fill="#d3964c"/><path d="M74.278,83.569c0,1.393-4.691,1.643-10.478,1.643c-5.787,0-10.479-0.25-10.479-1.643     c0-1.395,4.691-5.037,10.479-5.037C69.587,78.531,74.278,82.174,74.278,83.569z" fill="#e5b076"/><path d="M113.009,79.612c0,20.676-22.031,37.441-49.209,37.441s-49.209-16.766-49.209-37.441     c0-20.682,6.262,18.34,49.209,18.34S113.009,58.93,113.009,79.612z" fill="#c4833d"/><path d="M63.8,118.553c-27.961,0-50.709-17.469-50.709-38.941c0-21.27,22.619-46.959,50.709-46.959     s50.709,25.689,50.709,46.959C114.509,101.084,91.761,118.553,63.8,118.553z M63.8,35.653c-26.428,0-47.709,24.048-47.709,43.959     c0,19.818,21.402,35.941,47.709,35.941s47.709-16.123,47.709-35.941C111.509,59.7,90.228,35.653,63.8,35.653z" fill="#33363a"/></g><g><g><g><path d="M21.11,34.031c-0.124,12.322,4.217,22.303,11.009,27.771         c6.933-8.355,11.495-20.207,11.619-32.531C43.863,16.948,39.522,6.967,32.729,1.5C25.798,9.854,21.235,21.707,21.11,34.031z" fill="#d3964c"/><path d="M32.729,1.5C25.798,9.854,21.235,21.707,21.11,34.031         c-0.124,12.322,4.217,22.303,11.009,27.771L32.729,1.5z" fill="#c4833d"/><path d="M26.4,56.705c-0.503,0-0.995-0.254-1.278-0.714c-3.69-6-5.596-13.599-5.511-21.976         c0.123-12.257,4.484-24.458,11.964-33.474c0.521-0.631,1.454-0.725,2.095-0.211c7.479,6.019,11.695,16.572,11.569,28.956         c-0.075,7.313-1.688,14.76-4.665,21.537c-0.333,0.757-1.219,1.104-1.977,0.77c-0.758-0.333-1.103-1.218-0.77-1.977         c2.815-6.409,4.341-13.45,4.411-20.361c0.109-10.797-3.267-20.025-9.311-25.604c-6.463,8.362-10.206,19.348-10.317,30.395         c-0.079,7.811,1.672,14.855,5.065,20.373c0.435,0.706,0.214,1.63-0.491,2.063C26.94,56.634,26.668,56.705,26.4,56.705z" fill="#33363a"/></g><g><path d="M26.919,40.11c-0.059,5.826,1.994,10.541,5.204,13.127c3.276-3.949,5.433-9.551,5.491-15.375         c0.06-5.826-1.992-10.543-5.203-13.127C29.135,28.684,26.978,34.285,26.919,40.11z" fill="#66310e"/><path d="M32.411,24.735c-3.276,3.949-5.434,9.551-5.492,15.375         c-0.059,5.826,1.994,10.541,5.204,13.127L32.411,24.735z" fill="#89410b"/><path d="M32.122,54.737c-0.33,0-0.663-0.108-0.94-0.332c-3.724-3-5.824-8.216-5.763-14.31l0,0         c0.061-5.971,2.188-11.919,5.838-16.318c0.521-0.631,1.455-0.726,2.095-0.211c3.725,2.998,5.825,8.214,5.763,14.312         c-0.061,5.971-2.188,11.919-5.837,16.317C32.982,54.552,32.554,54.737,32.122,54.737z M26.919,40.11l1.5,0.015         c-0.045,4.413,1.253,8.354,3.524,10.88c2.618-3.716,4.123-8.423,4.171-13.157c0.045-4.416-1.252-8.356-3.523-10.88         c-2.619,3.716-4.124,8.424-4.172,13.157L26.919,40.11z" fill="#33363a"/></g></g><g><g><path d="M106.489,34.031c0.124,12.322-4.217,22.303-11.009,27.771         c-6.933-8.355-11.495-20.207-11.619-32.531C83.736,16.948,88.078,6.967,94.871,1.5         C101.802,9.854,106.365,21.707,106.489,34.031z" fill="#d3964c"/><path d="M94.871,1.5c6.931,8.353,11.494,20.207,11.618,32.531         c0.124,12.322-4.217,22.303-11.009,27.771L94.871,1.5z" fill="#c4833d"/><path d="M101.2,56.705c-0.269,0-0.54-0.071-0.785-0.223c-0.705-0.434-0.926-1.357-0.491-2.063         c3.394-5.518,5.145-12.563,5.065-20.372c-0.111-11.048-3.854-22.033-10.317-30.396c-6.044,5.579-9.42,14.808-9.311,25.604         c0.07,6.911,1.596,13.952,4.411,20.361c0.333,0.759-0.012,1.644-0.77,1.977c-0.758,0.336-1.644-0.012-1.977-0.77         c-2.978-6.777-4.59-14.225-4.665-21.537C82.235,16.904,86.452,6.35,93.931,0.331c0.641-0.514,1.572-0.42,2.095,0.211         c7.479,9.016,11.841,21.217,11.964,33.475c0.085,8.376-1.82,15.975-5.511,21.975C102.195,56.451,101.703,56.705,101.2,56.705         z" fill="#33363a"/></g><g><path d="M100.681,40.11c0.059,5.826-1.994,10.541-5.204,13.127c-3.276-3.949-5.433-9.551-5.491-15.375         c-0.06-5.826,1.992-10.543,5.203-13.127C98.465,28.684,100.622,34.285,100.681,40.11z" fill="#66310e"/><path d="M95.189,24.735c3.276,3.949,5.434,9.551,5.492,15.375c0.059,5.826-1.994,10.541-5.204,13.127         L95.189,24.735z" fill="#89410b"/><path d="M95.478,54.737c-0.432,0-0.859-0.185-1.155-0.542c-3.649-4.398-5.776-10.347-5.837-16.318         c-0.063-6.097,2.038-11.313,5.763-14.311c0.64-0.515,1.572-0.42,2.095,0.211c3.65,4.399,5.777,10.348,5.838,16.318l0,0         c0.062,6.094-2.039,11.31-5.763,14.31C96.141,54.628,95.808,54.737,95.478,54.737z M95.009,26.967         c-2.271,2.523-3.568,6.464-3.523,10.879c0.048,4.735,1.553,9.442,4.171,13.158c2.271-2.525,3.569-6.467,3.524-10.88         C99.133,35.391,97.628,30.683,95.009,26.967z" fill="#33363a"/></g></g></g><path d="M73.437,94.565c-0.828,0-1.5,0.672-1.5,1.5c0,1.428-1.162,2.59-2.59,2.59H67.89   c-1.428,0-2.59-1.162-2.59-2.59V94.61c0-0.073-0.011-0.143-0.021-0.213l3.111-1.557c0.622-0.312,0.949-1.01,0.789-1.687   s-0.765-1.155-1.46-1.155h-7.837c-0.695,0-1.3,0.479-1.46,1.155s0.167,1.375,0.789,1.687l3.11,1.557   c-0.01,0.07-0.021,0.14-0.021,0.213v1.455c0,1.428-1.162,2.59-2.59,2.59h-1.457c-1.428,0-2.59-1.162-2.59-2.59   c0-0.828-0.672-1.5-1.5-1.5s-1.5,0.672-1.5,1.5c0,3.082,2.508,5.59,5.59,5.59h1.457c1.615,0,3.068-0.693,4.09-1.792   c1.021,1.099,2.475,1.792,4.09,1.792h1.457c3.082,0,5.59-2.508,5.59-5.59C74.937,95.237,74.265,94.565,73.437,94.565z" fill="#33363a"/><path d="M47.638,84.428c0,4.449-3.605,8.051-8.053,8.051c-4.445,0-8.051-3.602-8.051-8.051    c0-4.447,3.605-8.051,8.051-8.051C44.032,76.377,47.638,79.981,47.638,84.428z" fill="#89410b"/><circle cx="35" cy="81" r="3" fill="#ffffff"/><path d="M39.585,74.877c-3.243,0-6.11,1.628-7.837,4.107c-0.106,0.143-0.198,0.294-0.288,0.448   c-0.898,1.456-1.426,3.163-1.426,4.996c0,5.267,4.284,9.551,9.551,9.551c5.268,0,9.553-4.284,9.553-9.551   S44.853,74.877,39.585,74.877z M39.585,90.979c-2.721,0-5.058-1.668-6.046-4.034c0.68-0.018,1.509-0.201,2.437-0.393   c0.357-0.03,0.701-0.097,1.032-0.202c0.809-0.144,1.675-0.258,2.577-0.258c2.413,0,4.572,0.813,6.048,0.853   C44.644,89.311,42.307,90.979,39.585,90.979z" fill="#33363a"/><path d="M96.066,84.428c0,4.449-3.605,8.051-8.051,8.051c-4.447,0-8.053-3.602-8.053-8.051    c0-4.447,3.605-8.051,8.053-8.051C92.46,76.377,96.066,79.981,96.066,84.428z" fill="#89410b"/><circle cx="84" cy="81" r="3" fill="#ffffff"/><path d="M88.015,74.877c-3.242,0-6.108,1.626-7.835,4.102c-0.108,0.146-0.202,0.299-0.294,0.457   c-0.897,1.455-1.424,3.161-1.424,4.992c0,5.267,4.285,9.551,9.553,9.551c5.267,0,9.551-4.284,9.551-9.551   S93.281,74.877,88.015,74.877z M88.015,90.979c-2.721,0-5.059-1.668-6.048-4.034c0.689-0.018,1.526-0.2,2.47-0.396   c0.335-0.03,0.657-0.093,0.968-0.189c0.82-0.148,1.695-0.268,2.61-0.268c2.412,0,4.571,0.813,6.046,0.853   C93.073,89.311,90.735,90.979,88.015,90.979z" fill="#33363a"/><g><path d="M84.327,44.19 77.62,29.262 71.208,32.145 63.8,24.735 56.391,32.145 49.98,29.262      43.273,44.19 58.197,50.897 58.53,50.155 63.8,55.424 69.069,50.156 69.402,50.897z" fill="#e5b076"/><path d="M71.208,44.645 63.8,37.237 56.391,44.645 49.98,41.764 47.946,46.289 58.197,50.897      58.53,50.155 63.8,55.424 69.069,50.156 69.402,50.897 79.653,46.289 77.62,41.764z" fill="#d3964c"/><path d="M84.328,45.69c-0.572,0-1.119-0.329-1.369-0.885l-6.092-13.56l-5.044,2.268     c-0.567,0.256-1.235,0.132-1.676-0.308l-6.348-6.35l-6.349,6.35c-0.441,0.439-1.109,0.563-1.676,0.308l-5.043-2.268l-6.092,13.56     c-0.34,0.755-1.226,1.095-1.983,0.753c-0.755-0.34-1.093-1.228-0.753-1.983l6.707-14.928c0.163-0.362,0.464-0.646,0.836-0.787     c0.37-0.143,0.783-0.13,1.147,0.034l5.467,2.458l6.678-6.678c0.281-0.281,0.663-0.439,1.061-0.439l0,0     c0.397,0,0.779,0.158,1.061,0.439l6.677,6.678l5.468-2.458c0.362-0.164,0.775-0.177,1.147-0.034     c0.372,0.142,0.673,0.425,0.836,0.787l6.707,14.928c0.34,0.756,0.002,1.644-0.753,1.983C84.742,45.648,84.533,45.69,84.328,45.69     z" fill="#33363a"/></g></g><g transform="matrix(0.33265572786331177 0 0 0.33265572786331177 26.839723587036133 2.839723587036133)" id="L1_12"><path d="M170.667,106.672c-35.292,0-64,28.708-64,64c0,35.292,28.708,64,64,64s64-28.708,64-64     C234.667,135.38,205.958,106.672,170.667,106.672z M170.667,213.338c-23.521,0-42.667-19.135-42.667-42.667     s19.146-42.667,42.667-42.667s42.667,19.135,42.667,42.667C213.333,194.203,194.187,213.338,170.667,213.338z"/><path d="M85.979,181.12c-0.396-3.354-0.646-6.979-0.646-10.448c0-47.052,38.271-85.333,85.333-85.333     c19.604,0,38.792,6.833,54,19.25c3.396,2.771,8.104,3.167,11.896,1.083l58.375-32.208c2.854-1.573,4.833-4.354,5.375-7.552     c0.542-3.208-0.396-6.49-2.563-8.906c-32.438-36.219-78.75-57-127.083-57C76.562,0.005,0,76.568,0,170.672     c0,15.625,2.25,31.417,6.688,46.927c0.896,3.115,3.146,5.667,6.146,6.917c1.333,0.542,2.708,0.813,4.104,0.813     c1.771,0,3.563-0.448,5.146-1.323l58.458-32.25C84.354,189.651,86.5,185.443,85.979,181.12z M24.042,198.557     c-1.792-9.292-2.708-18.625-2.708-27.885c0-82.344,67-149.333,149.333-149.333c37.771,0,74.125,14.51,101.687,40.219     l-40.021,22.083c-17.958-12.708-39.604-19.635-61.667-19.635C111.854,64.005,64,111.859,64,170.672     c0,1.896,0.062,3.823,0.167,5.75L24.042,198.557z"/><path d="M509.146,3.411c-3.146-3.427-8.167-4.365-12.375-2.385L252.687,121.193c-4.875,2.708-6.833,8.708-4.5,13.771     c5.104,11.146,7.813,23.5,7.813,35.708c0,47.052-38.271,85.333-85.333,85.333c-28.667,0-55.313-14.354-71.25-38.406     c-3.083-4.677-9.25-6.115-14.083-3.427l-55.917,31.063c-2.542,1.417-4.396,3.813-5.125,6.635     c-0.75,2.813-0.292,5.813,1.229,8.292c31.417,50.833,85.667,81.177,145.146,81.177c0.779,0,1.54-0.064,2.315-0.074     l40.664,162.658c1.063,4.24,4.604,7.396,8.917,7.99c0.479,0.063,0.958,0.094,1.438,0.094c3.813,0,7.375-2.042,9.292-5.417     L510.625,15.922C512.917,11.87,512.313,6.807,509.146,3.411z M227.875,472.818l-36.188-144.729     c-1.177-4.681-5.807-7.884-10.354-8.083c-3.292,0.219-7.313,0-10.667,0c-48.292,0-92.646-22.885-120.75-61.75l37.562-20.865     c20.229,25.177,50.646,39.948,83.188,39.948c58.813,0,106.667-47.854,106.667-106.667c0-11.969-2.083-24.042-6.063-35.396     L475.5,34.703L227.875,472.818z"/></g></defs><g fi:class="KUsePattern"><pattern id="pattern_L1_12" width="350" height="350" patternUnits="userSpaceOnUse"><use xlink:href="#L1_12" x="-350" y="-350"/><use xlink:href="#L1_12" x="0" y="-350"/><use xlink:href="#L1_12" x="350" y="-350"/><use xlink:href="#L1_12" x="-350" y="0"/><use xlink:href="#L1_12" x="0" y="0"/><use xlink:href="#L1_12" x="350" y="0"/><use xlink:href="#L1_12" x="-350" y="350"/><use xlink:href="#L1_12" x="0" y="350"/><use xlink:href="#L1_12" x="350" y="350"/></pattern><rect x="0" y="0" width="100%" height="100%" fill="url(#pattern_L1_12)"/></g><g fi:class="KUsePattern"><pattern id="pattern_L1_10" width="350" height="350" patternUnits="userSpaceOnUse"><use xlink:href="#L1_10" x="-350" y="-350"/><use xlink:href="#L1_10" x="0" y="-350"/><use xlink:href="#L1_10" x="350" y="-350"/><use xlink:href="#L1_10" x="-350" y="0"/><use xlink:href="#L1_10" x="0" y="0"/><use xlink:href="#L1_10" x="350" y="0"/><use xlink:href="#L1_10" x="-350" y="350"/><use xlink:href="#L1_10" x="0" y="350"/><use xlink:href="#L1_10" x="350" y="350"/></pattern><rect x="0" y="0" width="100%" height="100%" fill="url(#pattern_L1_10)"/></g><g fi:class="KUsePattern"><pattern id="pattern_L1_5" width="350" height="350" patternUnits="userSpaceOnUse"><use xlink:href="#L1_5" x="-350" y="-350"/><use xlink:href="#L1_5" x="0" y="-350"/><use xlink:href="#L1_5" x="350" y="-350"/><use xlink:href="#L1_5" x="-350" y="0"/><use xlink:href="#L1_5" x="0" y="0"/><use xlink:href="#L1_5" x="350" y="0"/><use xlink:href="#L1_5" x="-350" y="350"/><use xlink:href="#L1_5" x="0" y="350"/><use xlink:href="#L1_5" x="350" y="350"/></pattern><rect x="0" y="0" width="100%" height="100%" fill="url(#pattern_L1_5)"/></g><g fi:class="KUsePattern"><pattern id="pattern_L1_11" width="350" height="350" patternUnits="userSpaceOnUse"><use xlink:href="#L1_11" x="-350" y="-350"/><use xlink:href="#L1_11" x="0" y="-350"/><use xlink:href="#L1_11" x="350" y="-350"/><use xlink:href="#L1_11" x="-350" y="0"/><use xlink:href="#L1_11" x="0" y="0"/><use xlink:href="#L1_11" x="350" y="0"/><use xlink:href="#L1_11" x="-350" y="350"/><use xlink:href="#L1_11" x="0" y="350"/><use xlink:href="#L1_11" x="350" y="350"/></pattern><rect x="0" y="0" width="100%" height="100%" fill="url(#pattern_L1_11)"/></g><g fi:class="KUsePattern"><pattern id="pattern_L1_6" width="350" height="350" patternUnits="userSpaceOnUse"><use xlink:href="#L1_6" x="-350" y="-350"/><use xlink:href="#L1_6" x="0" y="-350"/><use xlink:href="#L1_6" x="350" y="-350"/><use xlink:href="#L1_6" x="-350" y="0"/><use xlink:href="#L1_6" x="0" y="0"/><use xlink:href="#L1_6" x="350" y="0"/><use xlink:href="#L1_6" x="-350" y="350"/><use xlink:href="#L1_6" x="0" y="350"/><use xlink:href="#L1_6" x="350" y="350"/></pattern><rect x="0" y="0" width="100%" height="100%" fill="url(#pattern_L1_6)"/></g><g fi:class="KUsePattern"><pattern id="pattern_L1_7" width="350" height="350" patternUnits="userSpaceOnUse"><use xlink:href="#L1_7" x="-350" y="-350"/><use xlink:href="#L1_7" x="0" y="-350"/><use xlink:href="#L1_7" x="350" y="-350"/><use xlink:href="#L1_7" x="-350" y="0"/><use xlink:href="#L1_7" x="0" y="0"/><use xlink:href="#L1_7" x="350" y="0"/><use xlink:href="#L1_7" x="-350" y="350"/><use xlink:href="#L1_7" x="0" y="350"/><use xlink:href="#L1_7" x="350" y="350"/></pattern><rect x="0" y="0" width="100%" height="100%" fill="url(#pattern_L1_7)"/></g><g fi:class="KUsePattern"><pattern id="pattern_L1_8" width="350" height="350" patternUnits="userSpaceOnUse"><use xlink:href="#L1_8" x="-350" y="-350"/><use xlink:href="#L1_8" x="0" y="-350"/><use xlink:href="#L1_8" x="350" y="-350"/><use xlink:href="#L1_8" x="-350" y="0"/><use xlink:href="#L1_8" x="0" y="0"/><use xlink:href="#L1_8" x="350" y="0"/><use xlink:href="#L1_8" x="-350" y="350"/><use xlink:href="#L1_8" x="0" y="350"/><use xlink:href="#L1_8" x="350" y="350"/></pattern><rect x="0" y="0" width="100%" height="100%" fill="url(#pattern_L1_8)"/></g><g fi:class="KUsePattern"><pattern id="pattern_L1_9" width="350" height="350" patternUnits="userSpaceOnUse"><use xlink:href="#L1_9" x="-350" y="-350"/><use xlink:href="#L1_9" x="0" y="-350"/><use xlink:href="#L1_9" x="350" y="-350"/><use xlink:href="#L1_9" x="-350" y="0"/><use xlink:href="#L1_9" x="0" y="0"/><use xlink:href="#L1_9" x="350" y="0"/><use xlink:href="#L1_9" x="-350" y="350"/><use xlink:href="#L1_9" x="0" y="350"/><use xlink:href="#L1_9" x="350" y="350"/></pattern><rect x="0" y="0" width="100%" height="100%" fill="url(#pattern_L1_9)"/></g></svg>